<svg width="274" height="274" viewBox="0 0 274 274" fill="none" xmlns="http://www.w3.org/2000/svg">
<circle cx="137" cy="137" r="128" stroke="black" stroke-width="18"/>
<path d="M137.042 147.042L137.042 232.911" stroke="black" stroke-width="18" stroke-linecap="round"/>
<path d="M218 66L137.042 146.958" stroke="black" stroke-width="18" stroke-linecap="round"/>
<path d="M136.958 146.958L56 66" stroke="black" stroke-width="18" stroke-linecap="round"/>
<g filter="url(#filter0_d_1_22)">
<path d="M137 9V101" stroke="black" stroke-width="18" stroke-linecap="round"/>
</g>
<g filter="url(#filter1_d_1_22)">
<path d="M211.205 238.933L217.569 245.296L230.296 232.569L223.933 226.205L211.205 238.933ZM167.364 169.636C163.849 166.121 158.151 166.121 154.636 169.636C151.121 173.151 151.121 178.849 154.636 182.364L167.364 169.636ZM223.933 226.205L167.364 169.636L154.636 182.364L211.205 238.933L223.933 226.205Z" fill="black"/>
</g>
<defs>
<filter id="filter0_d_1_22" x="124.609" y="0" width="24.7823" height="116.782" filterUnits="userSpaceOnUse" color-interpolation-filters="sRGB">
<feFlood flood-opacity="0" result="BackgroundImageFix"/>
<feColorMatrix in="SourceAlpha" type="matrix" values="0 0 0 0 0 0 0 0 0 0 0 0 0 0 0 0 0 0 127 0" result="hardAlpha"/>
<feOffset dy="3.39117"/>
<feGaussianBlur stdDeviation="1.69558"/>
<feComposite in2="hardAlpha" operator="out"/>
<feColorMatrix type="matrix" values="0 0 0 0 0 0 0 0 0 0 0 0 0 0 0 0 0 0 0.25 0"/>
<feBlend mode="normal" in2="BackgroundImageFix" result="effect1_dropShadow_1_22"/>
<feBlend mode="normal" in="SourceGraphic" in2="effect1_dropShadow_1_22" result="shape"/>
</filter>
<filter id="filter1_d_1_22" x="148.609" y="167" width="85.0788" height="85.0788" filterUnits="userSpaceOnUse" color-interpolation-filters="sRGB">
<feFlood flood-opacity="0" result="BackgroundImageFix"/>
<feColorMatrix in="SourceAlpha" type="matrix" values="0 0 0 0 0 0 0 0 0 0 0 0 0 0 0 0 0 0 127 0" result="hardAlpha"/>
<feOffset dy="3.39117"/>
<feGaussianBlur stdDeviation="1.69558"/>
<feComposite in2="hardAlpha" operator="out"/>
<feColorMatrix type="matrix" values="0 0 0 0 0 0 0 0 0 0 0 0 0 0 0 0 0 0 0.25 0"/>
<feBlend mode="normal" in2="BackgroundImageFix" result="effect1_dropShadow_1_22"/>
<feBlend mode="normal" in="SourceGraphic" in2="effect1_dropShadow_1_22" result="shape"/>
</filter>
</defs>
</svg>
